<svg xmlns="http://www.w3.org/2000/svg" width="111.73" height="43.11" viewBox="0 0 111.73 43.11"><defs><style>.cls-1{isolation:isolate;}.cls-2{fill:#e2e2e2;}</style></defs><g id="レイヤー_2" data-name="レイヤー 2"><g id="UK"><g class="cls-1"><path class="cls-2" d="M24.42,24H23.37V27.6h-1V24h-.7v-.48l.7-.29V23a1.42,1.42,0,0,1,.39-1.15,1.67,1.67,0,0,1,1.09-.33,3.27,3.27,0,0,1,.57.05l.43.12-.26.75-.3-.07a1.29,1.29,0,0,0-.35,0,.5.5,0,0,0-.43.18.85.85,0,0,0-.13.52v.28h1.05Z"/><path class="cls-2" d="M29,25.43a2.31,2.31,0,0,1-.56,1.66,2,2,0,0,1-1.52.59,2.16,2.16,0,0,1-1.06-.26,1.87,1.87,0,0,1-.73-.77,2.68,2.68,0,0,1-.26-1.22,2.26,2.26,0,0,1,.56-1.66A2,2,0,0,1,27,23.19a2,2,0,0,1,1.06.26,1.73,1.73,0,0,1,.73.76A2.53,2.53,0,0,1,29,25.43Zm-3.1,0a2,2,0,0,0,.24,1.06,1,1,0,0,0,1.58,0,2.46,2.46,0,0,0,0-2.12.9.9,0,0,0-.79-.37.88.88,0,0,0-.79.37A2,2,0,0,0,25.91,25.43Z"/><path class="cls-2" d="M32.32,23.19h.23l.21,0-.09.93-.19,0h-.2a1.39,1.39,0,0,0-.6.14,1,1,0,0,0-.45.4,1.22,1.22,0,0,0-.18.69V27.6h-1V23.27h.77L31,24H31a1.72,1.72,0,0,1,.52-.59A1.33,1.33,0,0,1,32.32,23.19Z"/></g><g class="cls-1"><path class="cls-2" d="M41.36,25.46a2,2,0,0,1-.76,1.65,3.32,3.32,0,0,1-2.1.6,4.88,4.88,0,0,1-2.2-.44V26a8.59,8.59,0,0,0,1.09.4,4.19,4.19,0,0,0,1.21.19,1.64,1.64,0,0,0,1-.28.94.94,0,0,0,.32-.73.89.89,0,0,0-.42-.77,5.83,5.83,0,0,0-1.22-.63,6.89,6.89,0,0,1-.93-.49,2.42,2.42,0,0,1-.72-.74,2,2,0,0,1-.28-1.12,1.89,1.89,0,0,1,.71-1.57A2.92,2.92,0,0,1,39,19.64a5,5,0,0,1,1.18.13,6.37,6.37,0,0,1,1.09.37l-.45,1.14a7.09,7.09,0,0,0-.94-.33,3.52,3.52,0,0,0-.92-.12,1.31,1.31,0,0,0-.87.25.83.83,0,0,0-.3.67.94.94,0,0,0,.17.55,1.58,1.58,0,0,0,.51.41c.23.12.53.27.9.43a6.74,6.74,0,0,1,1.08.57,2.21,2.21,0,0,1,.68.72A2,2,0,0,1,41.36,25.46Z"/><path class="cls-2" d="M45.09,21.53a2.63,2.63,0,0,1,1.75.51,1.91,1.91,0,0,1,.6,1.56v4h-1l-.27-.82h0a2.53,2.53,0,0,1-.81.71,2.57,2.57,0,0,1-1.17.22,2,2,0,0,1-1.33-.45,1.74,1.74,0,0,1-.53-1.4A1.57,1.57,0,0,1,43,24.48,4,4,0,0,1,45,24l1,0v-.3a1,1,0,0,0-.28-.81,1.13,1.13,0,0,0-.77-.24,3,3,0,0,0-.86.12,6.32,6.32,0,0,0-.82.32l-.44-1a4.43,4.43,0,0,1,1-.38A5,5,0,0,1,45.09,21.53Zm1,3.26-.73,0a2.17,2.17,0,0,0-1.26.31.92.92,0,0,0-.36.76.73.73,0,0,0,.25.61,1.1,1.1,0,0,0,.66.18,1.56,1.56,0,0,0,1-.35,1.25,1.25,0,0,0,.42-1Z"/><path class="cls-2" d="M50.57,27.6H49.18V19.24h1.39Z"/><path class="cls-2" d="M54.73,21.53a2.52,2.52,0,0,1,1.9.72,2.7,2.7,0,0,1,.7,2v.7H53.39a1.88,1.88,0,0,0,.45,1.26,1.58,1.58,0,0,0,1.19.45,4.18,4.18,0,0,0,1-.12,5.65,5.65,0,0,0,.94-.34v1.12a3.74,3.74,0,0,1-.91.3,5.33,5.33,0,0,1-1.13.1,3.44,3.44,0,0,1-1.55-.33,2.52,2.52,0,0,1-1.06-1,3.5,3.5,0,0,1-.38-1.7,3.33,3.33,0,0,1,.76-2.34A2.62,2.62,0,0,1,54.73,21.53Zm0,1a1.19,1.19,0,0,0-.9.36,1.63,1.63,0,0,0-.4,1.06H56a1.69,1.69,0,0,0-.31-1A1.12,1.12,0,0,0,54.73,22.55Z"/><path class="cls-2" d="M62.79,25.88a1.6,1.6,0,0,1-.65,1.37,3.11,3.11,0,0,1-1.84.46,6.49,6.49,0,0,1-1.07-.08,4.41,4.41,0,0,1-.87-.28V26.17a5.37,5.37,0,0,0,1,.35,3.68,3.68,0,0,0,1,.15,1.46,1.46,0,0,0,.83-.18.54.54,0,0,0,.25-.47.48.48,0,0,0-.1-.31,1.06,1.06,0,0,0-.38-.31,7.82,7.82,0,0,0-.87-.4,6.46,6.46,0,0,1-1-.47,1.51,1.51,0,0,1-.57-.55,1.53,1.53,0,0,1-.2-.82A1.38,1.38,0,0,1,59,21.94a3.12,3.12,0,0,1,1.68-.41,4.88,4.88,0,0,1,1,.11,4.8,4.8,0,0,1,1,.33l-.44,1c-.28-.11-.55-.21-.82-.29a2.74,2.74,0,0,0-.81-.12c-.61,0-.91.17-.91.51a.5.5,0,0,0,.11.32,1.51,1.51,0,0,0,.41.28,8.64,8.64,0,0,0,.83.36,6.51,6.51,0,0,1,.91.43,1.78,1.78,0,0,1,.6.55A1.55,1.55,0,0,1,62.79,25.88Z"/><path class="cls-2" d="M67.21,22.69H65.77V27.6H64.38V22.69h-1V22l1-.4v-.41a2,2,0,0,1,.55-1.59,2.32,2.32,0,0,1,1.49-.44,3.84,3.84,0,0,1,.78.07,3.72,3.72,0,0,1,.59.16l-.35,1-.41-.1a2.54,2.54,0,0,0-.49-.05.67.67,0,0,0-.59.25,1.18,1.18,0,0,0-.18.71v.38h1.44Z"/><path class="cls-2" d="M73.52,24.61a3.14,3.14,0,0,1-.77,2.29,2.74,2.74,0,0,1-2.09.81,2.91,2.91,0,0,1-1.45-.36,2.5,2.5,0,0,1-1-1.06,3.6,3.6,0,0,1-.36-1.68,3.16,3.16,0,0,1,.76-2.28,2.77,2.77,0,0,1,2.09-.8,2.93,2.93,0,0,1,1.46.36,2.51,2.51,0,0,1,1,1A3.6,3.6,0,0,1,73.52,24.61Zm-4.25,0a2.7,2.7,0,0,0,.33,1.46,1.38,1.38,0,0,0,2.16,0,2.61,2.61,0,0,0,.34-1.46,2.57,2.57,0,0,0-.34-1.45,1.21,1.21,0,0,0-1.09-.51,1.17,1.17,0,0,0-1.07.51A2.66,2.66,0,0,0,69.27,24.61Z"/><path class="cls-2" d="M78.08,21.53l.32,0,.28,0-.12,1.28-.27,0H78a1.89,1.89,0,0,0-.82.18,1.44,1.44,0,0,0-.62.55,1.75,1.75,0,0,0-.24,1V27.6H75v-6H76l.2,1h.06a2.45,2.45,0,0,1,.73-.81A1.73,1.73,0,0,1,78.08,21.53Z"/><path class="cls-2" d="M82,27.71A2.75,2.75,0,0,1,80,27a3.21,3.21,0,0,1-.74-2.33,3.7,3.7,0,0,1,.37-1.78,2.22,2.22,0,0,1,1-1,3.19,3.19,0,0,1,1.48-.33,4.37,4.37,0,0,1,1,.11,3.85,3.85,0,0,1,.75.26L83.42,23c-.23-.08-.46-.16-.69-.22a2.54,2.54,0,0,0-.65-.09c-1,0-1.45.65-1.45,2A2.37,2.37,0,0,0,81,26.09a1.25,1.25,0,0,0,1.06.48,3,3,0,0,0,.88-.12,3.28,3.28,0,0,0,.74-.33v1.2a2.5,2.5,0,0,1-.74.3A4.51,4.51,0,0,1,82,27.71Z"/><path class="cls-2" d="M87.47,21.53a2.53,2.53,0,0,1,1.9.72,2.74,2.74,0,0,1,.7,2v.7H86.13a1.79,1.79,0,0,0,.45,1.26,1.57,1.57,0,0,0,1.19.45,4.1,4.1,0,0,0,1-.12,5.74,5.74,0,0,0,1-.34v1.12a3.81,3.81,0,0,1-.92.3,5.26,5.26,0,0,1-1.13.1,3.47,3.47,0,0,1-1.55-.33,2.44,2.44,0,0,1-1.05-1,3.5,3.5,0,0,1-.38-1.7,3.32,3.32,0,0,1,.75-2.34A2.64,2.64,0,0,1,87.47,21.53Zm0,1a1.21,1.21,0,0,0-.91.36,1.69,1.69,0,0,0-.4,1.06h2.56a1.62,1.62,0,0,0-.31-1A1.09,1.09,0,0,0,87.47,22.55Z"/></g><g class="cls-1"><path class="cls-2" d="M13,37.13A15.11,15.11,0,0,0,12.73,40a9.47,9.47,0,0,0,.34,2.76l-.28.08A9.91,9.91,0,0,1,12.46,40a17.93,17.93,0,0,1,.25-3Zm3.26,1.34c0-.54,0-1,0-1.41h.3v1.41h1.22v.27H16.54c0,1,.07,2,.09,2.5a5.53,5.53,0,0,1,1.18.73l-.17.23a5.9,5.9,0,0,0-1-.67c0,.93-.33,1.29-1.29,1.29s-1.33-.45-1.33-1,.52-.91,1.3-.91a3,3,0,0,1,1,.19c0-.54,0-1.49-.07-2.39H14v-.27Zm-1,2.72c-.63,0-1,.27-1,.66s.39.72,1.05.72c.84,0,1-.32,1-1.17A2.72,2.72,0,0,0,15.3,41.19Z"/><path class="cls-2" d="M19.87,37.06c-.05,1.54-.05,3-.05,3.75,0,1.3.47,1.8,1.51,1.8s1.83-.53,2.35-2.21l.28.13c-.59,1.79-1.47,2.37-2.64,2.37s-1.78-.71-1.78-2.08c0-.7,0-2.23,0-3.76Zm2.2.75a6.25,6.25,0,0,1,.8,1l-.18.12a5.57,5.57,0,0,0-.79-1Zm.74-.42a6.17,6.17,0,0,1,.8,1l-.19.13a5.64,5.64,0,0,0-.77-1Z"/><path class="cls-2" d="M26.48,37.34a11.89,11.89,0,0,0,.07,1.36,3.77,3.77,0,0,1,1.75-.5c0-.35,0-.74,0-1.15h.28c0,.4,0,.79-.05,1.14a2.17,2.17,0,0,1,2.18,2.27c0,1-.58,1.91-2.2,2.37l-.13-.26c1.54-.41,2-1.2,2-2.1a1.94,1.94,0,0,0-1.92-2,5.86,5.86,0,0,1-1.07,3.09,3.39,3.39,0,0,0,.33.42l-.22.19a3,3,0,0,1-.3-.4,2,2,0,0,1-1.35.63c-.52,0-.86-.42-.86-1.15a2.89,2.89,0,0,1,1.23-2.38,12,12,0,0,1-.1-1.52Zm-.13,1.81a2.6,2.6,0,0,0-1,2.07c0,.56.24.88.62.88a1.66,1.66,0,0,0,1.17-.58A6.56,6.56,0,0,1,26.35,39.15Zm1,2.16a5.63,5.63,0,0,0,.95-2.85,3.34,3.34,0,0,0-1.68.52A6.51,6.51,0,0,0,27.32,41.31Z"/><path class="cls-2" d="M36.91,38.2v.27H34.48c0,1,.07,2,.1,2.61a7.21,7.21,0,0,1,2.19,1.17l-.2.22a6.52,6.52,0,0,0-2-1.11v.21c0,.81-.32,1.33-1.27,1.33s-1.54-.44-1.54-1,.58-1.05,1.64-1.05a4,4,0,0,1,.87.12c0-1-.11-2.87-.12-4h.31c0,.18,0,.38,0,.59s0,.41,0,.63Zm-3.52,2.93c-.85,0-1.34.3-1.34.78s.48.73,1.26.73,1-.42,1-1.07v-.3A3.36,3.36,0,0,0,33.39,41.13Z"/><path class="cls-2" d="M40.82,38.81a1.6,1.6,0,0,1,1.75,1.67c0,1.37-1.11,2.26-3.56,2.47l-.08-.28c2.31-.19,3.33-.94,3.33-2.18a1.34,1.34,0,0,0-1.46-1.41,13.66,13.66,0,0,0-2.71.4L38,39.19A14.37,14.37,0,0,1,40.82,38.81Zm-1.58-1.87a15.54,15.54,0,0,0,2.71.77l-.06.27a19.05,19.05,0,0,1-2.76-.78Z"/><path class="cls-2" d="M43.88,41.51a14.54,14.54,0,0,1,1.35,1.41l-.24.19a10.56,10.56,0,0,0-1.32-1.4Z"/><path class="cls-2" d="M52.09,37.89l.24.12a6.55,6.55,0,0,1-3.86,4.89l-.2-.25A6.06,6.06,0,0,0,52,38.17H47.39v-.28Zm1.32-.69a.73.73,0,1,1-.73-.74.72.72,0,0,1,.73.74Zm-1.29,0a.56.56,0,0,0,1.12,0,.56.56,0,0,0-.56-.56.57.57,0,0,0-.56.56Z"/><path class="cls-2" d="M59.19,37.89v4.56H54.38V37.89Zm-.3,4.28v-4H54.68v4Z"/><path class="cls-2" d="M65.4,37.83l.24.14a6.65,6.65,0,0,1-3.86,4.93l-.19-.25a6.12,6.12,0,0,0,3.7-4.54H60.7v-.28Z"/><path class="cls-2" d="M69.34,42.91h-.28V40.08a10.81,10.81,0,0,1-2,1.14L66.87,41a10.1,10.1,0,0,0,3.8-2.66l.21.16a8.69,8.69,0,0,1-1.54,1.4Z"/><path class="cls-2" d="M78,39.8v.3H72.3v-.3Z"/><path class="cls-2" d="M80.81,37.41v2.21a3.47,3.47,0,0,1-1.72,3.21l-.22-.21a3.17,3.17,0,0,0,1.64-3V37.41Zm2-.1v4.86a7.58,7.58,0,0,0,2.26-2l.15.26a8.73,8.73,0,0,1-2.48,2.12l-.23-.13V37.31Z"/><path class="cls-2" d="M89,41.11a5.5,5.5,0,0,0,1.15-1.8l.26.1a5.65,5.65,0,0,1-1.22,1.89,6.84,6.84,0,0,0,3,1.55l-.2.25a7.05,7.05,0,0,1-3-1.61,7,7,0,0,1-3,1.62l-.2-.24a6.67,6.67,0,0,0,3-1.57,5.81,5.81,0,0,1-1.2-1.83l.26-.1A5.31,5.31,0,0,0,89,41.11Zm-.15-3.28V36.77h.29v1.06h3v.26H85.81v-.26Zm-.71.54a6.81,6.81,0,0,1-2,1.94l-.25-.16a6.14,6.14,0,0,0,2-1.88Zm1.94-.11a16.58,16.58,0,0,1,2.06,1.9l-.26.13a15.93,15.93,0,0,0-2-1.89Z"/><path class="cls-2" d="M93.69,40.24V38.46h-.88v-.25h.88V36.77H94v1.44h.66v.25H94v1.67c.24-.09.45-.18.64-.27l0,.24-.68.3v2.27c0,.23,0,.38-.29.42a4.49,4.49,0,0,1-.66,0l0-.27a3.39,3.39,0,0,0,.54,0c.14,0,.18-.08.18-.21V40.52l-.86.35-.07-.26Zm5.58,2.63-.17.23a2.82,2.82,0,0,1-2.34-1.81,2.82,2.82,0,0,1-2.13,1.82l-.17-.22a2.67,2.67,0,0,0,2-1.6h-2V41h2.12a4.83,4.83,0,0,0,.13-.7H97a5,5,0,0,1-.13.69h2.31v.25H97A2.62,2.62,0,0,0,99.27,42.87Zm-3.78-2.49-.18-.17a1.67,1.67,0,0,0,.89-1.62h-1v2.27H94.9V38.72l-.2.19-.22-.16a6.3,6.3,0,0,0,1.51-2l.29,0c-.07.15-.15.3-.25.47H97.6l.16.09a7.52,7.52,0,0,1-.67,1h1.69v2.51h-.27V40h-1c-.37,0-.46-.1-.46-.47v-1h-.63A1.91,1.91,0,0,1,95.49,40.38Zm1.29-2a5.32,5.32,0,0,0,.58-.85H95.89a7.37,7.37,0,0,1-.65.85Zm.52,1.21c0,.19,0,.23.25.23h.72c.17,0,.22,0,.24,0V38.59H97.3Z"/></g><g id="グループ_887" data-name="グループ 887"><path id="パス_253" data-name="パス 253" class="cls-2" d="M0,7.16A24.08,24.08,0,0,1,.15,3.87,4.06,4.06,0,0,1,.63,2.53,4.8,4.8,0,0,1,2.27.79,4.86,4.86,0,0,1,5,0a5,5,0,0,1,2.8.79,4.86,4.86,0,0,1,1.6,1.74,3.29,3.29,0,0,1,.49,1.34,25.78,25.78,0,0,1,.12,3.29,25.32,25.32,0,0,1-.12,3.26,3.28,3.28,0,0,1-.49,1.36,4.64,4.64,0,0,1-1.6,1.72,5.05,5.05,0,0,1-2.8.81,4.93,4.93,0,0,1-2.77-.81A4.59,4.59,0,0,1,.63,11.78a6.5,6.5,0,0,1-.28-.61,3.77,3.77,0,0,1-.2-.75A23.64,23.64,0,0,1,0,7.16Zm2.14,0A15.54,15.54,0,0,0,2.31,10a2.19,2.19,0,0,0,.55,1.18,2.49,2.49,0,0,0,.88.7,2.39,2.39,0,0,0,1.3.32,2.63,2.63,0,0,0,1.32-.32,2.23,2.23,0,0,0,.85-.7A2.37,2.37,0,0,0,7.78,10a17.59,17.59,0,0,0,.15-2.81,17.84,17.84,0,0,0-.15-2.83,2.43,2.43,0,0,0-.57-1.17,2.37,2.37,0,0,0-.85-.72A3,3,0,0,0,5,2.14a3,3,0,0,0-1.3.3,2.66,2.66,0,0,0-.88.72,2.31,2.31,0,0,0-.55,1.17,16.68,16.68,0,0,0-.16,2.83Z"/><path id="パス_254" data-name="パス 254" class="cls-2" d="M12.76,4.17h2V5.23h0A3.25,3.25,0,0,1,17.43,4a3.49,3.49,0,0,1,2.28.88,3.47,3.47,0,0,1,1.07,2.61v6.66h-2v-6a2.13,2.13,0,0,0-.56-1.6,1.88,1.88,0,0,0-1.42-.56,1.92,1.92,0,0,0-1.43.56,2.14,2.14,0,0,0-.57,1.6v6h-2Z"/><path id="パス_255" data-name="パス 255" class="cls-2" d="M23.38.12h2V11.6c0,.46.25.69.76.69h.69v1.9H26a2.92,2.92,0,0,1-1.81-.55,2.19,2.19,0,0,1-.76-1.89Z"/><path id="パス_256" data-name="パス 256" class="cls-2" d="M28.94.12h2v2h-2Zm0,4.05h2v10h-2Z"/><path id="パス_257" data-name="パス 257" class="cls-2" d="M33.62,4.17h2V5.23h0A3.23,3.23,0,0,1,38.28,4a3.47,3.47,0,0,1,2.28.88,3.4,3.4,0,0,1,1.07,2.61v6.66h-2v-6a2.17,2.17,0,0,0-.56-1.6,2.09,2.09,0,0,0-2.85,0,2.1,2.1,0,0,0-.57,1.6v6h-2Z"/><path id="パス_258" data-name="パス 258" class="cls-2" d="M45.76,10a2.37,2.37,0,0,0,.7,1.83,2.29,2.29,0,0,0,1.7.64,3,3,0,0,0,2.2-1l1.45,1.25a4.72,4.72,0,0,1-3.61,1.62,5.37,5.37,0,0,1-1.54-.23,4.12,4.12,0,0,1-.74-.34,4,4,0,0,1-.7-.45,4,4,0,0,1-1-1.57,6.16,6.16,0,0,1-.44-2.51,6.9,6.9,0,0,1,.38-2.47,4.28,4.28,0,0,1,1-1.58,3.6,3.6,0,0,1,1.35-.85,4.25,4.25,0,0,1,4.35.87A4.09,4.09,0,0,1,52,8.28V10ZM50,8.29a2.51,2.51,0,0,0-.63-1.77A2,2,0,0,0,47.88,6a2,2,0,0,0-1.49.57,2.7,2.7,0,0,0-.63,1.77Z"/><path id="パス_259" data-name="パス 259" class="cls-2" d="M59.05.12h5.1a8.58,8.58,0,0,1,1.6.15,4.48,4.48,0,0,1,1.57.83A3.47,3.47,0,0,1,68.4,2.45a4.39,4.39,0,0,1,.43,2,4.24,4.24,0,0,1-1.1,2.85,4.14,4.14,0,0,1-3.3,1.39H61.19v5.49H59.05Zm2.13,6.56h3.16A2.25,2.25,0,0,0,66.13,6,2.37,2.37,0,0,0,66.7,4.4a2.82,2.82,0,0,0-.23-1.18,1.8,1.8,0,0,0-.68-.69,2.74,2.74,0,0,0-1.53-.4H61.18Z"/><path id="パス_260" data-name="パス 260" class="cls-2" d="M70.59,4.17h2V5.23h0A3.23,3.23,0,0,1,75.25,4a3.28,3.28,0,0,1,2.1.78L75.89,6.57a2.09,2.09,0,0,0-1.33-.5,1.87,1.87,0,0,0-1.32.5,2,2,0,0,0-.64,1.59v6h-2Z"/><path id="パス_261" data-name="パス 261" class="cls-2" d="M77.83,9.17a9,9,0,0,1,.26-2.43,3.55,3.55,0,0,1,.83-1.4,3.74,3.74,0,0,1,1.16-.9,4.74,4.74,0,0,1,3.81,0,3.48,3.48,0,0,1,1.12.9,3.16,3.16,0,0,1,.85,1.4,9.42,9.42,0,0,1,.24,2.43,8.89,8.89,0,0,1-.24,2.41A3.35,3.35,0,0,1,85,13a2.88,2.88,0,0,1-.48.44,2.13,2.13,0,0,1-.64.41,4.16,4.16,0,0,1-1.92.44,4,4,0,0,1-1.89-.44A3.7,3.7,0,0,1,78.92,13a3.91,3.91,0,0,1-.83-1.44A8.49,8.49,0,0,1,77.83,9.17Zm6.25,0A9,9,0,0,0,84,7.63a1.79,1.79,0,0,0-.4-.83,1.46,1.46,0,0,0-.66-.54,2.27,2.27,0,0,0-1-.2,2.38,2.38,0,0,0-.95.2,1.84,1.84,0,0,0-.67.54,2.25,2.25,0,0,0-.38.83,7.87,7.87,0,0,0-.12,1.54A7.89,7.89,0,0,0,80,10.7a2.46,2.46,0,0,0,.38.86,2.42,2.42,0,0,0,.67.52,2.23,2.23,0,0,0,.95.21,2.13,2.13,0,0,0,1-.21,1.86,1.86,0,0,0,.66-.52,2,2,0,0,0,.4-.86,8.46,8.46,0,0,0,.1-1.51Z"/><path id="パス_262" data-name="パス 262" class="cls-2" d="M88.53,5.71h-1V4.17h1V2.85a2.65,2.65,0,0,1,.79-2.1A3,3,0,0,1,91.26.12h1.3V2H91.42c-.61,0-.9.26-.87.83V4.17h2V5.71h-2V14.2h-2Z"/><path id="パス_263" data-name="パス 263" class="cls-2" d="M94.56.12h2v2h-2Zm0,4.05h2v10h-2Z"/><path id="パス_264" data-name="パス 264" class="cls-2" d="M98.84.12h2V11.6c0,.46.25.69.76.69h.7v1.9h-.9a3,3,0,0,1-1.82-.55,2.21,2.21,0,0,1-.75-1.89Z"/><path id="パス_265" data-name="パス 265" class="cls-2" d="M105.47,10a2.33,2.33,0,0,0,.7,1.83,2.28,2.28,0,0,0,1.7.64,3,3,0,0,0,2.19-1l1.46,1.25a4.75,4.75,0,0,1-3.61,1.62,5.39,5.39,0,0,1-1.55-.23,4,4,0,0,1-.73-.34,3.64,3.64,0,0,1-.7-.45,4,4,0,0,1-1-1.57,6.33,6.33,0,0,1-.43-2.51,6.9,6.9,0,0,1,.38-2.47,4.28,4.28,0,0,1,1-1.58,3.64,3.64,0,0,1,1.34-.85,4.27,4.27,0,0,1,1.45-.26,4.15,4.15,0,0,1,2.91,1.13,4.09,4.09,0,0,1,1.23,3.1V10Zm4.23-1.66a2.55,2.55,0,0,0-.63-1.77,2.23,2.23,0,0,0-3,0,2.69,2.69,0,0,0-.62,1.77Z"/></g></g></g></svg>